<?xml version="1.0" encoding="utf-8"?>
<!-- Generator: Adobe Illustrator 16.0.0, SVG Export Plug-In . SVG Version: 6.00 Build 0)  -->
<!DOCTYPE svg PUBLIC "-//W3C//DTD SVG 1.1//EN" "http://www.w3.org/Graphics/SVG/1.1/DTD/svg11.dtd">
<svg version="1.1" id="Layer_1" xmlns="http://www.w3.org/2000/svg" xmlns:xlink="http://www.w3.org/1999/xlink" x="0px" y="0px"
	 width="140px" height="170px" viewBox="0 0 140 170" enable-background="new 0 0 140 170" xml:space="preserve">
<path fill="#42B208" d="M137.9,101.939c-9.344,37.496-47.333,60.318-84.84,50.961S-7.258,105.572,2.1,68.073
	c9.358-37.5,47.328-60.332,84.828-50.973C124.426,26.459,147.258,64.431,137.9,101.939L137.9,101.939z"/>
<path fill="#FFFFFF" d="M93.694,61.308c-2.831-8.983-11.399-10.377-21.582-9.129l-2.698-12.722l-7.744,1.646l2.625,12.388
	c-2.034,0.432-4.107,0.911-6.164,1.395l-2.65-12.467l-7.739,1.644l2.704,12.714l-15.607,3.339l1.758,8.271
	c0,0,5.695-1.324,5.623-1.198c3.137-0.665,4.546,0.938,5.176,2.447l7.397,34.849c0.072,1.016-0.175,2.711-2.366,3.178
	c0.118,0.066-5.632,1.188-5.632,1.188l0.43,9.585l15.617-3.267l2.735,12.867l7.734-1.642l-2.701-12.731
	c2.137-0.409,4.191-0.825,6.196-1.254l2.688,12.672l7.743-1.646l-2.726-12.845c12.862-3.512,21.278-8.727,19.812-21.182
	c-1.176-10.038-6.737-13.448-14.504-13.654c4.001-3.245,5.953-7.867,3.87-14.438 M88.697,91.123
	c2.039,9.616-14.65,12.018-19.9,13.137L65.18,87.213c5.249-1.114,21.385-6.116,23.518,3.908 M79.997,67.835
	c1.855,8.751-12.093,10.645-16.467,11.573l-3.289-15.462c4.376-0.928,17.812-5.234,19.75,3.891"/>
</svg>
