<?xml version="1.0" encoding="utf-8"?>
<!-- Generator: Adobe Illustrator 16.0.0, SVG Export Plug-In . SVG Version: 6.00 Build 0)  -->
<!DOCTYPE svg PUBLIC "-//W3C//DTD SVG 1.1//EN" "http://www.w3.org/Graphics/SVG/1.1/DTD/svg11.dtd">
<svg version="1.1" id="Layer_1" xmlns="http://www.w3.org/2000/svg" xmlns:xlink="http://www.w3.org/1999/xlink" x="0px" y="0px"
	 width="32px" height="32px" viewBox="54 76.501 32 32" enable-background="new 54 76.501 32 32" xml:space="preserve">
<path opacity="0.96" fill="#42B208" shape-rendering="crispEdges" d="M85.521,96.373c-2.136,8.57-10.82,13.787-19.393,11.648
	c-8.573-2.139-13.787-10.818-11.648-19.39c2.139-8.572,10.818-13.791,19.39-11.651C82.44,79.12,87.659,87.799,85.521,96.373
	L85.521,96.373z"/>
<path opacity="0.96" fill="#FFFFFF" d="M75.415,87.086c-0.646-2.054-2.605-2.373-4.933-2.087l-0.617-2.908l-1.77,0.376l0.6,2.832
	c-0.465,0.099-0.939,0.208-1.409,0.318l-0.606-2.849l-1.769,0.375l0.618,2.906l-3.567,0.763l0.402,1.891
	c0,0,1.301-0.303,1.285-0.273c0.717-0.152,1.039,0.215,1.183,0.56l1.69,7.966c0.017,0.232-0.04,0.619-0.541,0.727
	c0.027,0.015-1.288,0.271-1.288,0.271l0.099,2.19l3.569-0.747l0.625,2.941l1.767-0.375l-0.617-2.91
	c0.489-0.094,0.958-0.188,1.417-0.287l0.614,2.897l1.77-0.377l-0.623-2.936c2.94-0.803,4.864-1.995,4.528-4.842
	c-0.269-2.295-1.54-3.074-3.315-3.121c0.915-0.741,1.361-1.798,0.885-3.3 M74.273,93.9c0.466,2.198-3.349,2.747-4.549,3.003
	l-0.827-3.896C70.098,92.752,73.786,91.609,74.273,93.9 M72.285,88.578c0.424,2-2.765,2.433-3.765,2.645l-0.751-3.534
	c1-0.212,4.071-1.196,4.514,0.89"/>
</svg>
