<svg id="Layer_1" data-name="Layer 1" xmlns="http://www.w3.org/2000/svg" width="198px" height="58px" viewBox="0 0 198 58"><defs><style>.cls-1{fill:#fff;}.cls-2{fill:#5dc9bc;}</style></defs><title>dark-TrueUSD-small</title><g id="Page-1"><g id="dark-TrueUSD-Copy"><path id="Shape" class="cls-1" d="M30.14,37.6V22.94h1.93A8.25,8.25,0,0,0,40,17H23.28C15.34,17,14,22.94,14,22.94h9.86V45S30.14,43.11,30.14,37.6Z"/><path id="Shape-2" data-name="Shape" class="cls-2" d="M48.5,49A22.82,22.82,0,0,0,54.25,27.3a23.36,23.36,0,0,0-6.2-10.71c-.27-.26-.54-.53-.86-.8l-.27-.27c-.18-.17-.4-.35-.58-.49L46,14.77l-.54-.41-.32-.22-.63-.44-.4-.27a2.49,2.49,0,0,0-.54-.31l-.4-.27c-.18-.09-.36-.23-.54-.31l-.41-.23c-.18-.09-.36-.18-.58-.27l-.14,0c.5.4,1,.85,1.44,1.29a21.89,21.89,0,0,1,0,31.09,28.28,28.28,0,0,1-39.76,0c-.41-.4-.77-.8-1.17-1.2l-.32-.36c-.22-.26-.45-.53-.67-.84a29.41,29.41,0,0,0,47,7.49A1.57,1.57,0,0,0,48.5,49Z"/><path id="Shape-3" data-name="Shape" class="cls-1" d="M13.48,46c-.49-.4-1-.85-1.44-1.29a21.93,21.93,0,0,1,0-31.13,28.33,28.33,0,0,1,39.8,0A29.34,29.34,0,0,1,54,16,29.5,29.5,0,0,0,7,8.54,4.77,4.77,0,0,1,6.5,9,22.94,22.94,0,0,0,3.94,37.83,24.1,24.1,0,0,0,13.48,46Z"/></g></g><g id="Group_2" data-name="Group 2"><g id="Group_2-2" data-name="Group 2"><g id="Group_3" data-name="Group 3"><g id="True"><path id="path1_fill" data-name="path1 fill" class="cls-1" d="M83.56,18.75H63.72v4.83h7.36V43.25h5V23.58h7.44Zm5.25,7.58a11.48,11.48,0,0,0-6,1.62v15.3h4.69V31.41A5,5,0,0,1,89.59,31a6.14,6.14,0,0,1,2.85.7l1.27-4.4A12.26,12.26,0,0,0,88.81,26.33Zm21,.49h-4.72v12a4.12,4.12,0,0,1-2.29.46c-1.9,0-2.72-.95-2.72-3.14V26.82H95.4v9.31c0,5.08,1.48,7.61,7.4,7.61a16.77,16.77,0,0,0,7-1.62Zm10.38-.49c-4.76,0-7.37,2.36-7.37,8.64,0,6.52,2.36,8.77,7.75,8.77A15.16,15.16,0,0,0,127,42.33l-1.37-3.87a11,11,0,0,1-4.79.91c-2,0-3.32-.77-3.32-2.85h9.45V34.47C126.92,29.64,125.58,26.33,120.19,26.33Zm-.11,3.74c2,0,2.47,1,2.5,3.17h-5.14C117.51,31,118.32,30.07,120.08,30.07Z"/></g><g id="USD"><path id="path2_fill" data-name="path2 fill" class="cls-1" d="M148.87,18.75h-5V33.31c0,4.26-1.34,5.6-4.05,5.6-3.14,0-4.13-1.41-4.13-5.78V18.75h-5.14v15.3c0,8.11,3.52,9.69,9.23,9.69,5.18,0,9.06-1.58,9.06-9.55Zm10.84-.49c-6.13,0-8.46,2.64-8.46,7.54,0,3.84,1.63,6.31,7,7.54,3.32.78,4.34,1.48,4.34,3.11s-.81,2.46-3.07,2.46a24.7,24.7,0,0,1-7.19-1.34l-1,4.73A22.21,22.21,0,0,0,160,43.74c5.71,0,7.93-2.89,7.93-7.33s-1.73-6.45-7.37-7.82c-3.45-.89-4.16-1.7-4.16-3.11,0-1.69,1.09-2.39,3.21-2.39a21.45,21.45,0,0,1,6.13,1l1.13-4.73A23.43,23.43,0,0,0,159.71,18.26Zm18.91.49h-8.07v24.5h8.11c7.58,0,10.61-3.38,10.61-12.34S186.1,18.75,178.62,18.75Zm-.07,4.65c4.2,0,5.54,1.77,5.54,7.51,0,6.31-1.59,7.55-6.14,7.55h-2.29V23.4Z"/></g><g id="Â_" data-name="Â®"><path id="path3_fill" data-name="path3 fill" class="cls-1" d="M194.62,25.43a3.31,3.31,0,0,1-1.68-.45,3.42,3.42,0,0,1-1.23-1.22,3.32,3.32,0,0,1,0-3.34,3.37,3.37,0,0,1,1.23-1.23,3.31,3.31,0,0,1,1.68-.45,3.26,3.26,0,0,1,1.69.45,3.4,3.4,0,0,1,1.24,1.23,3.32,3.32,0,0,1,0,3.34A3.45,3.45,0,0,1,196.31,25,3.26,3.26,0,0,1,194.62,25.43Zm0-.54a2.82,2.82,0,0,0,1.43-.37,2.88,2.88,0,0,0,1-1,2.73,2.73,0,0,0,0-2.81,2.77,2.77,0,0,0-1-1,2.84,2.84,0,0,0-2.84,0,2.8,2.8,0,0,0-1,1,2.79,2.79,0,0,0,0,2.81,2.9,2.9,0,0,0,1,1A2.8,2.8,0,0,0,194.62,24.89Zm-1.38-4.71h1.49a1.72,1.72,0,0,1,1.07.31,1.05,1.05,0,0,1,.4.89,1.14,1.14,0,0,1-.24.76,1.18,1.18,0,0,1-.57.37l1,1.48h-.92l-.8-1.35h-.58V24h-.82ZM194.76,22a.66.66,0,0,0,.47-.15.62.62,0,0,0,.15-.42.58.58,0,0,0-.15-.41.62.62,0,0,0-.47-.16h-.7V22Z"/></g></g></g></g></svg>