<?xml version="1.0" encoding="utf-8"?>
<!-- Generator: Adobe Illustrator 16.0.0, SVG Export Plug-In . SVG Version: 6.00 Build 0)  -->
<!DOCTYPE svg PUBLIC "-//W3C//DTD SVG 1.1//EN" "http://www.w3.org/Graphics/SVG/1.1/DTD/svg11.dtd">
<svg version="1.1" id="Layer_1" xmlns="http://www.w3.org/2000/svg" xmlns:xlink="http://www.w3.org/1999/xlink" x="0px" y="0px"
	 width="140px" height="170px" viewBox="0 0 140 170" enable-background="new 0 0 140 170" xml:space="preserve">
<path display="none" fill="#FFCE00" d="M70,15C31.338,15,0,46.338,0,85c0,38.662,31.338,70,70,70c38.662,0,70-31.338,70-70
	C140,46.338,108.654,15,70,15z M70.213,53.597L40.854,70.332v33.473l22.355,12.743V99.77v-7.984l-7.009-4.001l-12.506-7.126v-5.085
	l9.554-5.443l9.961,5.678l7.002,3.991l7.011-3.991l9.959-5.678l9.552,5.443v5.085l-12.509,7.126l-7.002,4.001v7.984v16.914
	l28.948-15.916l-15.77-6.25L114.34,80.36v31.865l-44.127,25.15l-44.127-25.15V61.915l44.127-25.159l44.127,25.159v7.69l-14.77,8.417
	v-7.69L70.213,53.597z M112.838,114.072l19.102,7.629v-19.008L112.838,114.072z"/>
<path fill="#3E3900" d="M0.106,125.02l70,40.188l70-40.188V44.637l-70-40.198l-70,40.198V125.02z"/>
<path fill="#FFCE00" d="M70.106,42.252L32.763,63.538v42.575l28.434,16.21v-21.343V90.824l-8.915-5.088l-15.907-9.064v-6.468
	l12.152-6.922l12.67,7.222l8.907,5.076l8.917-5.076l12.667-7.222l12.149,6.922v6.468l-15.91,9.064l-8.906,5.088v10.155v21.514
	l36.82-20.244L95.784,94.3l30.449-18.007v40.531l-56.127,31.99l-56.127-31.99V52.832l56.127-32.001l56.127,32.001v9.782
	l-18.786,10.705v-9.781L70.106,42.252z"/>
</svg>
