<?xml version="1.0" encoding="utf-8"?>
<!-- Generator: Adobe Illustrator 16.0.0, SVG Export Plug-In . SVG Version: 6.00 Build 0)  -->
<!DOCTYPE svg PUBLIC "-//W3C//DTD SVG 1.1//EN" "http://www.w3.org/Graphics/SVG/1.1/DTD/svg11.dtd">
<svg version="1.1" id="Layer_1" xmlns="http://www.w3.org/2000/svg" xmlns:xlink="http://www.w3.org/1999/xlink" x="0px" y="0px"
	 width="140px" height="170px" viewBox="0 0 140 170" enable-background="new 0 0 140 170" xml:space="preserve">
<path fill="#EAB200" d="M70.008,155c-9.45,0-18.615-1.854-27.246-5.5c-16.777-7.113-30.133-20.469-37.246-37.246
	C1.854,103.607,0,94.444,0,84.992S1.854,66.38,5.5,57.746C16.439,31.819,41.853,14.975,69.992,15c9.438,0,18.628,1.839,27.262,5.486
	C123.18,31.424,140.024,56.837,140,84.977c0,9.45-1.854,18.615-5.5,27.246c-7.113,16.778-20.469,30.135-37.246,37.248
	C88.62,153.146,79.46,155,70.008,155z M70.008,30.545c-14.542,0-28.219,5.67-38.506,15.94c-10.29,10.29-15.94,23.964-15.94,38.506
	c0,14.543,5.668,28.218,15.939,38.508c10.29,10.272,23.964,15.94,38.506,15.94s28.219-5.67,38.506-15.94
	c10.272-10.29,15.94-23.964,15.94-38.506s-5.67-28.219-15.94-38.506c-10.29-10.272-23.964-15.94-38.506-15.94l0,0L70.008,30.545z"/>
<path fill="#EAB200" d="M65.8,102.422h30.331v15.242H77.455c0.304,4.361,0.471,8.4,0.775,12.749H62.516v-12.601H43.84
	c0-4.983-0.623-9.953,0.304-14.618c0.471-2.492,3.267-4.665,4.984-6.839c5.912-7.005,11.822-13.843,17.886-20.848
	c2.34-2.644,4.665-5.136,7.31-8.084H45.238V52.185h17.263v-12.75H77.59V51.88h18.83c0,5.136,0.623,10.105-0.304,14.785
	c-0.472,2.492-3.267,4.665-5.136,6.838c-5.912,7.005-11.822,13.844-17.886,20.849C70.785,97.134,68.46,99.61,65.8,102.422"/>
</svg>
